<svg width="285" height="286" xmlns="http://www.w3.org/2000/svg" xmlns:xlink="http://www.w3.org/1999/xlink" xml:space="preserve" overflow="hidden"><g transform="translate(25 -102)"><path d="M184.656 162.094C197.125 166.547 209 171.594 218.797 179.609 222.953 182.875 225.328 187.625 225.328 192.969L230.672 238.984C230.969 241.062 230.078 243.141 228.297 244.328L228.297 244.328C223.25 247.594 217.906 250.266 212.266 252.047L212.266 261.547 220.281 261.547C225.328 259.469 230.375 257.094 234.828 254.125L234.828 254.125C240.172 250.562 243.141 244.031 242.25 237.5L237.5 192.672C237.203 184.062 233.344 176.047 226.516 170.703 215.531 161.5 202.469 155.859 188.812 151.109L174.266 145.172C173.078 144.578 172.484 143.688 172.484 142.5L172.484 135.375C183.766 126.469 190.297 112.812 190.297 98.2656L190.297 87.5781C192.078 88.7656 194.156 89.0625 196.234 89.3594L191.188 74.5156C190.594 72.4375 190 70.3594 189.703 68.2812 187.328 51.3594 177.234 39.4844 163.281 32.0625 162.094 31.4688 160.609 31.4688 159.422 32.3594L156.75 34.4375 153.781 30.2812C152.891 29.0938 151.703 27.9062 150.219 27.6094 147.547 27.0156 144.875 26.7188 142.203 26.7188 118.75 26.7188 99.1563 45.125 95 69.1719L95 71.25 95 71.25 95 76.2969C95 82.8281 93.8125 89.0625 91.1406 95L86.0938 106.875C86.0938 106.875 89.6562 105.984 95.5938 104.203 97.0781 116.375 103.312 127.359 112.812 134.781L112.812 142.203C112.812 143.391 112.219 144.578 111.031 144.875L96.4844 150.812C82.8281 155.562 69.7656 161.203 58.7812 170.406 51.9531 175.75 47.7969 183.766 47.5 192.375L42.4531 237.5C41.5625 244.031 44.5312 250.562 49.875 254.125 54.3281 257.094 59.375 259.469 64.4219 261.547L72.7344 261.547 72.7344 252.344C67.0938 250.266 61.75 247.891 56.7031 244.625 54.9219 243.438 54.0313 241.359 54.3281 239.281L59.375 193.562 59.375 192.969C59.375 187.625 62.0469 182.875 66.2031 179.609 76 171.594 87.875 166.547 100.344 162.094L105.094 160.609C113.703 165.953 127.359 169.219 142.5 169.219 157.641 169.219 171.297 165.953 180.203 160.609L184.656 162.094ZM106.875 100.641C127.062 93.8125 156.156 81.9375 169.219 65.3125 171.891 69.4688 174.859 73.3281 178.125 77.1875L178.125 97.9688C178.125 117.562 162.094 133.594 142.5 133.594 123.797 133.594 108.359 119.344 106.875 100.641ZM118.75 154.078C122.312 151.406 124.688 146.953 124.688 142.203L124.688 141.906C135.969 146.656 149.031 146.656 160.312 141.906L160.312 142.203C160.312 146.656 162.391 151.109 165.953 154.078 158.234 156.453 150.219 157.641 142.203 157.344 134.484 157.344 126.469 156.156 118.75 154.078Z" fill="#002060" transform="matrix(1 0 0 1.00351 -25 102)"/><path d="M206.625 193.859C206.625 189.703 203.359 186.438 199.203 186.438L199.203 186.438 86.0938 186.438C81.9375 186.438 78.6719 189.703 78.6719 193.859L78.6719 193.859 78.6719 267.781 56.1094 267.781 56.1094 271.641C56.1094 275.797 59.375 279.062 63.5312 279.062L221.766 279.062C225.922 279.062 229.187 275.797 229.187 271.641L229.187 267.781 206.625 267.781 206.625 193.859ZM127.062 242.844 122.906 247 106.281 230.375 122.906 213.75 127.062 217.906 114.594 230.375 127.062 242.844ZM138.344 249.078 133 246.703 146.953 213.156 152.297 215.531 138.344 249.078ZM162.094 247.297 157.938 243.141 170.406 230.672 157.938 218.203 162.094 214.047 178.719 230.672 162.094 247.297Z" fill="#002060" transform="matrix(1 0 0 1.00351 -25 102)"/></g></svg>